<?xml version="1.0" encoding="UTF-8"?>
<svg width="300px" height="300px" viewBox="0 0 300 300" version="1.1" xmlns="http://www.w3.org/2000/svg" xmlns:xlink="http://www.w3.org/1999/xlink">
    <!-- Generator: Sketch 51.3 (57544) - http://www.bohemiancoding.com/sketch -->
    <title>appicon</title>
    <desc>Created with Sketch.</desc>
    <defs>
        <rect id="path-1" x="0" y="0" width="300" height="300" rx="66.6550016"></rect>
        <rect id="path-3" x="0" y="0" width="300" height="300" rx="43"></rect>
        <path d="M280.591829,139.144481 C281.524999,151.238573 273.031571,161.975382 261.627917,163.121416 C252.897242,163.998105 244.999567,158.996749 241.351241,151.185761 L231.002017,152.099419 L223.188696,155.875523 C221.401438,156.736368 220.199389,158.447498 219.925237,160.412128 C219.187137,165.709235 217.848011,170.810935 215.986944,175.659135 C215.354286,177.301607 215.465001,179.134206 216.324361,180.665772 L219.108054,185.651285 L226.847566,190.853329 C230.928207,189.290075 235.678411,189.665045 239.585072,192.289832 C246.206888,196.741937 247.793804,205.904929 242.869619,212.353351 C238.630814,217.90924 230.748954,219.435525 224.749251,215.865391 C220.926945,213.594448 218.617745,209.823626 218.053625,205.794022 L209.475842,200.032164 L204.077164,199.372006 C202.221369,199.144912 200.376117,199.783945 199.026448,201.077854 C194.471313,205.424334 189.325698,209.158187 183.73195,212.147382 C181.849794,213.150822 180.642472,215.078483 180.510669,217.206832 L179.825289,228.160172 L183.220552,241.6538 C188.998825,243.269866 193.77539,247.859284 195.346489,254.101737 C197.718955,263.539355 191.866873,273.114285 182.324287,275.242634 C173.714871,277.165014 164.884026,272.137251 162.147782,263.734761 C160.017834,257.175432 161.973801,250.39429 166.476214,245.963311 L163.065135,232.390464 L157.798261,223.908755 C156.385325,221.632531 153.886328,220.285809 151.208077,220.29109 C151.192261,220.29109 151.181717,220.29109 151.1659,220.29109 C146.552772,220.29109 142.039814,219.83162 137.674477,218.970774 C135.075308,218.45321 132.391786,219.277087 130.567623,221.204749 L123.608389,228.561548 L115.816157,244.753901 C117.640319,248.466629 117.803756,252.950422 115.87415,256.969463 C112.405078,264.173106 103.558416,267.035551 96.4884669,263.053478 C90.4360425,259.636501 87.8157856,252.094857 90.451859,245.651716 C92.249661,241.257705 95.9770687,238.321323 100.194786,237.339008 L108.034468,221.041029 L109.573935,210.103533 C109.853359,208.086091 109.083625,206.052804 107.501981,204.774739 C101.265032,199.704726 95.9190751,193.583742 91.7382628,186.67585 C90.6996499,184.959439 88.83331,183.91903 86.8298942,183.903186 L75.9270949,183.797561 L63.9909548,187.557821 C63.1526835,194.993839 58.0703341,201.600699 50.4889872,203.98783 C40.3031998,207.198838 29.4531219,201.590137 26.1474859,191.450112 C22.84185,181.315367 28.4250533,170.229996 38.5317585,166.881675 C45.6069793,164.536794 53.0407062,166.48558 58.0703341,171.275686 L70.7393026,167.283051 L79.99192,160.676191 C81.3679503,159.699157 82.1007786,158.061965 81.9637028,156.382524 C81.8108106,154.518238 81.7317284,152.638108 81.7317284,150.736853 C81.7317284,140.406703 83.9987515,130.599397 88.0477601,121.779687 C88.6382405,120.485778 88.6224241,118.996461 88.0003108,117.718396 L85.2587945,112.104413 L77.8197955,106.479868 C73.6547997,107.816027 68.9362284,107.176994 65.18246,104.340956 C58.8137068,99.5244439 57.7381888,90.2875146 63.0103355,84.1242804 C67.5496538,78.8166109 75.5053232,77.7286706 81.2994124,81.6262429 C84.989915,84.1084366 87.0882294,87.9954463 87.4256468,92.0514565 L95.6712842,98.2833471 L103.980187,99.7673821 C110.02734,94.1428367 117.0762,89.5851066 124.820983,86.3899423 L126.771677,74.5176626 L124.309585,62.2545694 C117.023478,60.3744397 111.10813,54.7815819 109.515941,47.3244383 C107.270007,36.7883182 114.49812,26.5268237 125.664527,24.4090372 C136.825661,22.2912506 147.696828,29.1093614 149.942762,39.6454816 C151.624577,47.5304075 148.002612,55.2568956 141.39134,59.5347188 L143.716357,71.1006853 L149.426092,80.2267081 C149.800414,80.8234909 150.45416,81.1826168 151.155356,81.1826168 L151.1659,81.1826168 C164.240824,81.1826168 176.482748,84.8266884 186.937415,91.1536417 C187.512079,91.4969239 188.218547,91.5444552 188.824844,91.259267 L197.766405,87.1081941 L208.205255,75.7957283 C207.57787,71.7397181 208.73247,67.4407699 211.732321,64.192793 C217.152088,58.3253096 226.431066,58.1774342 232.030086,64.0449176 C236.938454,69.1941493 237.128252,77.4065136 232.467674,82.7828395 C229.452006,86.263192 225.123574,87.868696 220.895312,87.5518202 L210.456462,98.864286 L207.066471,108.000871 C206.829225,108.634623 206.934668,109.342312 207.330079,109.891564 C211.447625,115.553078 214.732173,121.858906 216.999196,128.629486 C217.626581,130.48849 219.102782,131.935556 220.990211,132.468964 L229.478367,134.850814 L240.507698,133.87378 C243.212309,126.062792 249.965929,120.153058 258.259016,119.318619 C269.662669,118.172584 279.663931,127.050388 280.591829,139.144481 Z" id="path-5"></path>
    </defs>
    <g id="Page-1" stroke="none" stroke-width="1" fill="none" fill-rule="evenodd">
        <g id="appicon">
            <mask id="mask-2" fill="white">
                <use xlink:href="#path-1"></use>
            </mask>
            <g id="path-1"></g>
            <g id="App-Icon" mask="url(#mask-2)">
                <mask id="mask-4" fill="white">
                    <use xlink:href="#path-3"></use>
                </mask>
                <g id="Mask"></g>
                <g id="Icon" mask="url(#mask-4)">
                    <rect id="Background" fill="#000000" fill-rule="evenodd" x="0" y="0" width="300" height="300"></rect>
                    <g id="Glyph" stroke-width="1" fill-rule="evenodd" transform="translate(54.492188, 46.289062)">
                        <polygon id="Head-Base" fill="#FFFFFF" style="mix-blend-mode: overlay;" points="0 0 95.5078125 71.484375 191.015625 0 191.015625 142.96875 95.5078125 214.453125 0 142.96875"></polygon>
                        <polygon id="Jowl" fill-opacity="0.700000048" fill="#FFFFFF" style="mix-blend-mode: overlay;" points="0 142.96875 95.5078125 71.484375 191.015625 142.96875 95.5078125 214.453125"></polygon>
                        <polygon id="Ears/Nose" fill="#FFFFFF" style="mix-blend-mode: soft-light;" points="0 0 95.5078125 214.453125 191.015625 0 95.5078125 71.484375"></polygon>
                        <path d="M0,0 L95.5078125,214.453125 L0,34.8632812 L0,0 Z M191.015625,0 L191.015625,34.8632812 L95.5078125,214.453125 L191.015625,0 Z" id="Shadows" fill-opacity="0.25" fill="#000000" style="mix-blend-mode: overlay;"></path>
                    </g>
                    <g id="Smooth-Corners" fill="#000000" fill-rule="evenodd">
                        <path d="M17.1259519,-6.91908956e-16 C11.1708853,4.02019029e-16 9.0114343,0.620046074 6.83435096,1.78436298 C4.65726763,2.94867989 2.94867989,4.65726763 1.78436298,6.83435096 C0.620046074,9.0114343 -2.68012686e-16,11.1708853 4.61272637e-16,17.1259519 L0,0 L17.1259519,0 Z M282.874048,0 L300,0 L300,17.1259519 C300,11.1708853 299.379954,9.0114343 298.215637,6.83435096 C297.05132,4.65726763 295.342732,2.94867989 293.165649,1.78436298 C290.988566,0.620046074 288.829115,-4.02019029e-16 282.874048,6.91908956e-16 Z M300,282.874048 L300,300 L282.874048,300 C288.829115,300 290.988566,299.379954 293.165649,298.215637 C295.342732,297.05132 297.05132,295.342732 298.215637,293.165649 C299.379954,290.988566 300,288.829115 300,282.874048 Z M17.1259519,300 L0,300 L0,282.874048 C2.68012686e-16,288.829115 0.620046074,290.988566 1.78436298,293.165649 C2.94867989,295.342732 4.65726763,297.05132 6.83435096,298.215637 C9.0114343,299.379954 11.1708853,300 17.1259519,300 Z"></path>
                    </g>
                    <mask id="mask-6" fill="white">
                        <use xlink:href="#path-5"></use>
                    </mask>
                    <use id="Mask" fill="#FFFFFF" fill-rule="evenodd" xlink:href="#path-5"></use>
                </g>
            </g>
        </g>
    </g>
</svg>